<svg xmlns="http://www.w3.org/2000/svg" viewBox="0 0 100 100" fill="none">
  <rect width="100" height="100" rx="20" fill="#F8F7F4"/>
  <path fill-rule="evenodd" clip-rule="evenodd" d="M50 32C45.5817 32 42 35.5817 42 40C42 44.4183 45.5817 48 50 48C54.4183 48 58 44.4183 58 40C58 35.5817 54.4183 32 50 32ZM38 40C38 33.3726 43.3726 28 50 28C56.6274 28 62 33.3726 62 40C62 46.6274 56.6274 52 50 52C43.3726 52 38 46.6274 38 40Z" fill="#A95C3D"/>
  <path fill-rule="evenodd" clip-rule="evenodd" d="M48 46H52V64H58V68H42V64H48V46Z" fill="#A95C3D"/>
</svg>
